<?xml version="1.0" encoding="UTF-8" standalone="no"?>
<svg
   xmlns:dc="http://purl.org/dc/elements/1.1/"
   xmlns:cc="http://creativecommons.org/ns#"
   xmlns:rdf="http://www.w3.org/1999/02/22-rdf-syntax-ns#"
   xmlns:svg="http://www.w3.org/2000/svg"
   xmlns="http://www.w3.org/2000/svg"
   viewBox="0 0 666.66669 666.66669"
   height="666.66669"
   width="666.66669"
   xml:space="preserve"
   id="svg2"
   version="1.1"><metadata
     id="metadata8"><rdf:RDF><cc:Work
         rdf:about=""><dc:format>image/svg+xml</dc:format><dc:type
           rdf:resource="http://purl.org/dc/dcmitype/StillImage" /></cc:Work></rdf:RDF></metadata><defs
     id="defs6" /><g
     transform="matrix(1.3333333,0,0,-1.3333333,0,666.66667)"
     id="g10"><g
       transform="scale(0.1)"
       id="g12"><path
         id="path14"
         style="fill:#ffffff;fill-opacity:1;fill-rule:nonzero;stroke:none"
         d="M 5000,0 V 5000 H 0 V 0 h 5000" /><path
         id="path16"
         style="fill:#f9ac63;fill-opacity:1;fill-rule:nonzero;stroke:none"
         d="m 1929.5,3826.69 c -6.17,0 -11.97,2.39 -16.32,6.75 l -209.37,209.36 c -9,9 -9,23.65 0,32.65 4.36,4.36 10.16,6.76 16.33,6.76 6.16,0 11.96,-2.4 16.32,-6.76 l 209.37,-209.35 c 9,-9 9,-23.65 0,-32.66 -4.36,-4.35 -10.16,-6.75 -16.33,-6.75" /><path
         id="path18"
         style="fill:#f9ac63;fill-opacity:1;fill-rule:nonzero;stroke:none"
         d="m 2493.61,4078.4 c -12.73,0 -23.08,10.36 -23.08,23.09 v 296.07 c 0,12.73 10.35,23.09 23.08,23.09 12.74,0 23.1,-10.36 23.1,-23.09 v -296.07 c 0,-12.73 -10.36,-23.09 -23.1,-23.09" /><path
         id="path20"
         style="fill:#f9ac63;fill-opacity:1;fill-rule:nonzero;stroke:none"
         d="m 3070.5,3857.5 c -6.17,0 -11.97,2.4 -16.33,6.76 -4.36,4.36 -6.76,10.16 -6.76,16.33 0,6.16 2.4,11.96 6.76,16.32 l 209.36,209.36 c 4.37,4.36 10.17,6.76 16.33,6.76 6.16,0 11.97,-2.4 16.33,-6.76 9,-9 9,-23.65 0,-32.65 l -209.36,-209.36 c -4.37,-4.36 -10.16,-6.76 -16.33,-6.76" /><path
         id="path22"
         style="fill:#f25791;fill-opacity:1;fill-rule:nonzero;stroke:none"
         d="m 3122.91,3429.84 c -5.46,90.6 -59.88,184.25 -154.74,218.15 -112.34,40.14 -244.88,-16.37 -317.08,-102.63 -72.2,-86.26 -126.98,-204.61 -151.09,-309.9 -24.11,105.29 -78.89,223.64 -151.1,309.9 -72.2,86.26 -204.74,142.77 -317.07,102.63 -94.86,-33.9 -149.28,-127.55 -154.74,-218.15 -5.45,-90.61 29.3,-179.1 68.09,-263.05 132.69,-287.14 324.5,-554.04 554.82,-787.59 230.32,233.55 422.13,500.45 554.82,787.59 38.79,83.95 73.54,172.44 68.09,263.05" /><path
         id="path24"
         style="fill:#f03e83;fill-opacity:1;fill-rule:nonzero;stroke:none"
         d="m 2168.29,2910.39 c -77.41,138.83 -113.2,240.84 -170.91,390.3 13.68,-169.15 49.19,-281.68 168.93,-406.23 7.43,-8.18 14.88,-16.34 22.38,-24.46 -6.6,13.57 -13.4,27.03 -20.4,40.39" /><path
         id="path26"
         style="fill:#f03e83;fill-opacity:1;fill-rule:nonzero;stroke:none"
         d="m 2162.91,3078.09 c 17.56,-96.49 68.89,-182 132.54,-255.22 -34.93,88.09 -85.2,172.08 -132.54,255.22" /><path
         id="path28"
         style="fill:#f03e83;fill-opacity:1;fill-rule:nonzero;stroke:none"
         d="m 2265.65,2781.28 c 20.38,-54.37 55.88,-101.15 97.61,-140.99 -27.2,54.41 -60.07,96.59 -97.61,140.99" /><path
         id="path30"
         style="fill:#f03e83;fill-opacity:1;fill-rule:nonzero;stroke:none"
         d="m 2934.9,3600.36 c 32.43,-31.49 54.98,-71.34 61.76,-116.32 13.41,-56.98 12.84,-114.02 1.08,-169.51 -2.76,-16.7 -6.21,-33.28 -9.48,-49.88 4.27,7.84 8.46,15.72 12.38,23.73 17.86,37.51 34.29,77.09 36.05,119.11 3.06,76.27 -29.96,158.65 -101.79,192.87" /><path
         id="path32"
         style="fill:#f03e83;fill-opacity:1;fill-rule:nonzero;stroke:none"
         d="m 3069.49,3411.64 c -0.94,22.85 -8.8,44.57 -16.15,66 3.71,-51.78 0.28,-103.6 3.2,-155.41 7.77,29.06 13.84,59.2 12.95,89.41" /><path
         id="path34"
         style="fill:#f03e83;fill-opacity:1;fill-rule:nonzero;stroke:none"
         d="m 2970.85,3090.23 c -2.35,-6.53 -4.58,-9.84 1.64,-1.7 34.29,43.33 60.29,93.44 70.86,147.95 -27.87,-46.86 -54.24,-94.7 -72.5,-146.25" /><path
         id="path36"
         style="fill:#f03e83;fill-opacity:1;fill-rule:nonzero;stroke:none"
         d="m 2681.39,3462.07 c 50.03,40.67 91.44,91.71 147.91,124.02 -68.54,-12.84 -113.79,-67.07 -147.91,-124.02" /><path
         id="path38"
         style="fill:#f03e83;fill-opacity:1;fill-rule:nonzero;stroke:none"
         d="m 2338.59,3456.8 c -12.13,45.07 -40.51,83.86 -81.27,107.06 -29.67,18.38 -63.99,35.13 -99.79,29.47 36.81,-5.73 65.81,-31.03 94.73,-52.63 32.62,-22.77 59.75,-51.49 80.05,-85.75 4.03,-6.39 8.12,-12.74 12.1,-19.16 -1.74,7.06 -3.73,14.05 -5.82,21.01" /><path
         id="path40"
         style="fill:#f9decc;fill-opacity:1;fill-rule:nonzero;stroke:none"
         d="m 1264.35,3133.5 250.37,277.67 c 0,0 796.66,-585.63 950.3,-1176.31 L 2265.86,2103.6 c 0,0 -466.62,615.92 -1001.51,1029.9" /><path
         id="path42"
         style="fill:#f9decc;fill-opacity:1;fill-rule:nonzero;stroke:none"
         d="m 3735.65,3133.5 -250.37,277.67 c 0,0 -796.66,-585.63 -950.3,-1176.31 l 199.16,-131.26 c 0,0 466.61,615.92 1001.51,1029.9" /><path
         id="path44"
         style="fill:#f9ac63;fill-opacity:1;fill-rule:nonzero;stroke:none"
         d="m 2297.04,2530.13 c 13.17,-60.5 44.79,-115.58 80.58,-165.49 -16.87,59.8 -47.7,113.35 -80.58,165.49" /><path
         id="path46"
         style="fill:#f9ac63;fill-opacity:1;fill-rule:nonzero;stroke:none"
         d="m 3254.54,3019.58 c 76.32,53.7 145.05,117.56 202.75,190.98 -79.08,-50.29 -148.26,-114.66 -202.75,-190.98" /><path
         id="path48"
         style="fill:#f9ac63;fill-opacity:1;fill-rule:nonzero;stroke:none"
         d="m 1838.35,2952.54 c 146.04,-122.04 345.11,-321.26 421.62,-495.15 -7.51,11.44 -14.82,22.89 -21.88,34.42 -115.65,163.02 -265.34,312.52 -399.74,460.73 v 0" /><path
         id="path50"
         style="fill:#f9ac63;fill-opacity:1;fill-rule:nonzero;stroke:none"
         d="m 3481.71,3302.58 c -157.32,-107.12 -374.99,-285.82 -468.21,-451.37 8.6,10.66 17,21.34 25.16,32.11 131.09,150.89 294.74,284.96 443.05,419.26 v 0" /><path
         id="path52"
         style="fill:#f9decc;fill-opacity:1;fill-rule:nonzero;stroke:none"
         d="m 2708.05,2068.96 c 0,101.94 -93.14,184.58 -208.05,184.58 -114.91,0 -208.06,-82.64 -208.06,-184.58" /><path
         id="path54"
         style="fill:#886dbe;fill-opacity:1;fill-rule:nonzero;stroke:none"
         d="m 2708.06,2046.29 c -14.12,0 -25.55,10.14 -25.55,22.66 0,89.29 -81.88,161.93 -182.51,161.93 -100.64,0 -182.52,-72.64 -182.52,-161.93 0,-12.52 -11.43,-22.66 -25.54,-22.66 -14.1,0 -25.54,10.14 -25.54,22.66 0,114.28 104.79,207.25 233.6,207.25 128.81,0 233.6,-92.97 233.6,-207.25 0,-12.52 -11.43,-22.66 -25.54,-22.66" /><path
         id="path56"
         style="fill:#75d0b9;fill-opacity:1;fill-rule:nonzero;stroke:none"
         d="m 3830.74,3115.94 c -24.92,26.02 -49.84,52.05 -74.77,78.07 -6.49,6.78 -17.99,7.61 -25.61,1.83 -404,-306.5 -758.82,-660.52 -1055.02,-1052.03 -111.7,-43.68 -238.98,-43.68 -350.68,0 -296.2,391.51 -651.02,745.53 -1055.02,1052.03 -7.62,5.78 -19.12,4.95 -25.61,-1.83 -24.93,-26.02 -49.85,-52.05 -74.78,-78.07 -6.43,-6.72 -5.51,-16.76 2.05,-22.49 402.44,-305.35 754.91,-659.02 1047.3,-1050.75 -0.4,-0.66 -0.81,-1.31 -1.22,-1.97 1.36,-0.66 2.77,-1.21 4.13,-1.86 0.3,-0.4 0.61,-0.79 0.9,-1.19 0.25,0.15 0.5,0.29 0.76,0.44 172.96,-82.17 380.7,-82.17 553.66,0 0.26,-0.15 0.51,-0.3 0.76,-0.44 0.29,0.4 0.6,0.79 0.9,1.18 1.36,0.66 2.77,1.21 4.13,1.87 -0.41,0.66 -0.82,1.31 -1.22,1.97 292.39,391.74 644.86,745.4 1047.3,1050.75 7.56,5.73 8.48,15.77 2.04,22.49" /><path
         id="path58"
         style="fill:#83d4be;fill-opacity:1;fill-rule:nonzero;stroke:none"
         d="m 2730.84,2109.18 c 84.39,90.97 146.64,173.19 215.77,274.91 -94.34,-71.14 -167.71,-167.24 -215.77,-274.91" /><path
         id="path60"
         style="fill:#83d4be;fill-opacity:1;fill-rule:nonzero;stroke:none"
         d="m 2996.26,2460.21 c 31.75,29.9 63.54,59.96 87.27,96.94 -34.79,-26.33 -67.6,-57.45 -87.27,-96.94" /><path
         id="path62"
         style="fill:#83d4be;fill-opacity:1;fill-rule:nonzero;stroke:none"
         d="m 1348.11,3066.67 c 73.34,-93.62 159.55,-176.05 255.88,-245.75 -68.75,97.52 -155.79,180.84 -255.88,245.75" /><path
         id="path64"
         style="fill:#83d4be;fill-opacity:1;fill-rule:nonzero;stroke:none"
         d="m 1614.95,2839.78 c 35.36,-44.71 79.04,-82 127.18,-112.32 -35.03,45.1 -78.69,82.37 -127.18,112.32" /><path
         id="path66"
         style="fill:#83d4be;fill-opacity:1;fill-rule:nonzero;stroke:none"
         d="m 2302.67,2083.09 c 51.68,-25.3 111.29,-25.53 167.35,-19.06 -57.79,13.56 -107.13,12.66 -167.35,19.06" /><g
         transform="scale(10)"
         id="g68"><text
           id="text72"
           style="font-variant:normal;font-weight:normal;font-size:38.5719986px;font-family:FredokaOne;-inkscape-font-specification:FredokaOne-Regular;writing-mode:lr-tb;fill:#f25791;fill-opacity:1;fill-rule:nonzero;stroke:none"
           transform="matrix(1,0,0,-1,109.464,143.223)"><tspan
             id="tspan70"
             y="0"
             x="0 22.641764 32.554768 57.471096 81.810028 111.31761 134.8855 161.34589 171.10367 193.74544 223.63873 251.17914">LIBRARY LOGO</tspan></text>
</g><g
         transform="scale(10)"
         id="g74"><text
           id="text78"
           style="font-variant:normal;font-weight:normal;font-size:27.53230095px;font-family:Montserrat;-inkscape-font-specification:Montserrat-Regular;writing-mode:lr-tb;fill:#886dbe;fill-opacity:1;fill-rule:nonzero;stroke:none"
           transform="matrix(1,0,0,-1,147.196,107.839)"><tspan
             id="tspan76"
             y="0"
             x="0 16.932365 32.763435 55.863037 77.145508 96.886162 119.26992 126.48283 148.86658 167.28569 187.19098">SLOGAN HERE</tspan></text>
</g></g></g></svg>