<?xml version="1.0" encoding="UTF-8" standalone="no"?>
<svg
   xmlns:dc="http://purl.org/dc/elements/1.1/"
   xmlns:cc="http://creativecommons.org/ns#"
   xmlns:rdf="http://www.w3.org/1999/02/22-rdf-syntax-ns#"
   xmlns:svg="http://www.w3.org/2000/svg"
   xmlns="http://www.w3.org/2000/svg"
   viewBox="0 0 666.66669 666.66669"
   height="666.66669"
   width="666.66669"
   xml:space="preserve"
   id="svg2"
   version="1.1"><metadata
     id="metadata8"><rdf:RDF><cc:Work
         rdf:about=""><dc:format>image/svg+xml</dc:format><dc:type
           rdf:resource="http://purl.org/dc/dcmitype/StillImage" /></cc:Work></rdf:RDF></metadata><defs
     id="defs6" /><g
     transform="matrix(1.3333333,0,0,-1.3333333,0,666.66667)"
     id="g10"><g
       transform="scale(0.1)"
       id="g12"><path
         id="path14"
         style="fill:#ffffff;fill-opacity:0;fill-rule:nonzero;stroke:none"
         d="M 5000,0 H 0 V 5000 H 5000 V 0" /><path
         id="path16"
         style="fill:#f68a4f;fill-opacity:1;fill-rule:nonzero;stroke:none"
         d="m 1403.29,3777.57 1.07,2.19 c 118.81,245.45 372.76,558.1 375.31,561.22 l 18.88,23.17 V 3318.78 l -13.52,3.8 c -0.33,0.1 -33.79,9.33 -81,9.33 -88.45,0 -208.91,-31.05 -280.52,-178.97 l -20.22,-41.76 v 666.39" /><path
         id="path18"
         style="fill:#ffffff;fill-opacity:1;fill-rule:nonzero;stroke:none"
         d="m 1809.19,4394.04 -37.77,-46.33 c -2.56,-3.14 -257.28,-316.76 -376.64,-563.31 l -2.13,-4.4 v -4.87 -617.56 -92.78 l 40.43,83.51 c 69.21,142.97 185.55,172.98 270.95,172.97 45.54,0 77.81,-8.84 78.13,-8.93 l 27,-7.53 0.03,28.01 v 3.55 997.89 59.78 z m -21.27,-59.78 V 3332.82 c 0,0 -34.43,9.73 -83.89,9.73 -85,0.01 -214.45,-28.72 -290.1,-184.98 v 617.56 c 119.65,247.16 373.99,559.13 373.99,559.13" /><path
         id="path20"
         style="fill:#fdde38;fill-opacity:1;fill-rule:nonzero;stroke:none"
         d="m 1403.29,3777.57 1.07,2.19 c 89.86,185.66 469.17,461.74 485.27,473.41 l 18.37,13.3 -1.52,-22.63 c -0.6,-8.96 -59.98,-896.79 -60.48,-906.94 l -0.51,-10.1 -10.11,-0.1 c -3.25,0 -326.1,-2.49 -411.87,-179.67 l -20.22,-41.77 v 672.31" /><path
         id="path22"
         style="fill:#ffffff;fill-opacity:1;fill-rule:nonzero;stroke:none"
         d="m 1920.13,4288.39 -36.74,-26.6 c -16.19,-11.73 -397.58,-289.36 -488.61,-477.39 l -2.13,-4.4 v -4.87 -623.47 -92.79 l 40.43,83.52 c 82.85,171.13 399.13,173.67 402.32,173.67 l 21.24,0.04 0.01,20.66 c 1.51,25.13 59.85,897.5 60.45,906.38 l 3.03,45.25 z m -24.26,-43.84 c 0,0 -60.5,-904.55 -60.5,-907.21 0,0 -331.7,-0.31 -421.44,-185.68 v 623.47 c 89.74,185.37 481.94,469.42 481.94,469.42" /><path
         id="path24"
         style="fill:#78ce7a;fill-opacity:1;fill-rule:nonzero;stroke:none"
         d="m 1403.29,3777.57 1.07,2.19 c 60.73,125.47 573.06,374.13 594.84,384.66 l 18.12,8.76 -2.97,-19.91 c -1.18,-7.94 -117.34,-786.63 -120.89,-812.1 v -8.23 l -8.79,-1.55 c -4.03,-0.72 -404.38,-72.98 -461.16,-190.28 l -20.22,-41.75 v 678.21" /><path
         id="path26"
         style="fill:#ffffff;fill-opacity:1;fill-rule:nonzero;stroke:none"
         d="M 2030.81,4191.51 1994.57,4174 c -54.94,-26.55 -538.51,-263.01 -599.79,-389.6 l -2.13,-4.4 v -4.87 -629.38 -92.79 l 40.43,83.51 c 45.17,93.31 342.64,164.78 453.45,184.44 l 17.57,3.12 v 16.39 c 4.16,29.21 80.34,540.21 120.77,811.28 l 5.94,39.81 z m -26.98,-36.67 c 0,0 -121.01,-811.21 -121.01,-812.98 0,0 -409.07,-72.53 -468.89,-196.11 v 629.38 c 59.82,123.58 589.9,379.71 589.9,379.71" /><path
         id="path28"
         style="fill:#17b1aa;fill-opacity:1;fill-rule:nonzero;stroke:none"
         d="m 1403.29,3777.57 1.07,2.19 c 30.95,63.95 635.19,271.93 703.98,295.44 l 18.56,6.34 -4.81,-19.02 c -1.75,-6.97 -173.4,-685.82 -181.18,-717.39 v -6.68 l -7.6,-2.26 c -186.33,-55.46 -489.5,-159.06 -509.8,-200.99 l -20.22,-41.76 v 684.13" /><path
         id="path30"
         style="fill:#ffffff;fill-opacity:1;fill-rule:nonzero;stroke:none"
         d="m 2142.03,4097.95 -37.13,-12.68 c -1.67,-0.58 -169.27,-57.91 -338.37,-122.08 -349.37,-132.56 -364.48,-163.79 -371.75,-178.79 l -2.12,-4.4 v -4.87 -635.3 -92.79 l 40.43,83.52 c 2.86,5.25 28.92,35.74 258.99,116.24 122.84,42.98 243.06,78.83 244.26,79.19 l 15.21,4.52 v 13.32 c 8.9,35.83 121.02,479.42 180.86,716.08 l 9.62,38.04 z m -30.25,-32.82 c 0,0 -181.51,-717.86 -181.51,-718.75 0,0 -486.43,-144.75 -516.34,-206.55 v 635.3 c 29.91,61.79 697.85,290 697.85,290" /><path
         id="path32"
         style="fill:#697471;fill-opacity:1;fill-rule:nonzero;stroke:none"
         d="m 1403.29,3783.45 833.78,207.23 -251.13,-648.02 -582.65,-224.23 v 665.02" /><path
         id="path34"
         style="fill:#ffffff;fill-opacity:1;fill-rule:nonzero;stroke:none"
         d="m 2254.39,4005.96 -39.78,-9.9 -805.81,-200.28 -16.14,-4.02 v -16.63 -641.21 -30.99 l 28.91,11.13 563.8,216.98 8.79,3.38 3.4,8.79 242.02,624.51 14.81,38.24 z m -34.65,-30.54 -242.02,-624.52 -563.79,-216.98 v 641.21 l 805.81,200.29" /><path
         id="path36"
         style="fill:#f68a4f;fill-opacity:1;fill-rule:nonzero;stroke:none"
         d="m 1400.67,3152.94 c -71.61,147.92 -192.08,178.97 -280.53,178.97 -47.21,0 -80.66,-9.23 -80.99,-9.33 l -13.52,-3.79 -0.01,1045.36 18.89,-23.17 c 2.55,-3.12 256.49,-315.77 375.31,-561.22 l 1.06,-2.19 v -666.39 l -20.21,41.76" /><path
         id="path38"
         style="fill:#ffffff;fill-opacity:1;fill-rule:nonzero;stroke:none"
         d="m 1014.98,4394.04 0.01,-59.78 V 3304.7 l 27.06,7.65 c 0.28,0.08 32.55,8.92 78.09,8.92 85.41,0 201.74,-30.01 270.95,-172.97 l 40.43,-83.52 v 92.79 617.56 4.87 l -2.13,4.4 c -119.35,246.55 -374.08,560.17 -376.64,563.31 l -37.77,46.33 z m 21.28,-59.78 c 0,0 254.33,-311.97 373.98,-559.13 v -617.56 c -75.64,156.26 -205.09,184.98 -290.1,184.98 -49.45,0 -83.88,-9.73 -83.88,-9.73 v 3.55 997.89" /><path
         id="path40"
         style="fill:#fdde38;fill-opacity:1;fill-rule:nonzero;stroke:none"
         d="m 1400.67,3147.03 c -85.85,177.32 -408.619,179.67 -411.869,179.67 l -10.633,0.01 v 10.63 c -0.496,9.71 -59.875,897.54 -60.477,906.5 l -1.515,22.63 18.371,-13.3 c 16.101,-11.67 395.403,-287.75 485.273,-473.41 l 1.06,-2.19 v -672.3 l -20.21,41.76" /><path
         id="path42"
         style="fill:#ffffff;fill-opacity:1;fill-rule:nonzero;stroke:none"
         d="m 904.047,4288.39 3.027,-45.25 c 0.594,-8.88 58.938,-881.15 60.453,-906.38 v -20.66 l 21.25,-0.04 c 3.188,0 319.473,-2.54 402.313,-173.67 l 40.43,-83.52 v 92.79 623.47 4.87 l -2.13,4.4 c -91.02,188.03 -472.413,465.66 -488.605,477.39 l -36.738,26.6 z m 24.258,-43.84 c 0,0 392.195,-284.05 481.935,-469.42 v -623.47 c -89.74,185.37 -421.431,185.68 -421.431,185.68 0,2.66 -60.504,907.21 -60.504,907.21" /><path
         id="path44"
         style="fill:#78ce7a;fill-opacity:1;fill-rule:nonzero;stroke:none"
         d="m 1400.67,3141.11 c -56.81,117.33 -457.135,189.56 -461.166,190.28 l -8.785,1.55 v 8.23 c -3.555,25.47 -119.711,804.16 -120.895,812.1 l -2.969,19.91 18.122,-8.76 c 21.777,-10.53 534.103,-259.19 594.843,-384.66 l 1.06,-2.19 v -678.21 l -20.21,41.75" /><path
         id="path46"
         style="fill:#ffffff;fill-opacity:1;fill-rule:nonzero;stroke:none"
         d="m 793.363,4191.51 5.938,-39.81 c 40.433,-271.05 116.601,-782.01 120.777,-811.28 v -16.39 l 17.559,-3.12 c 110.813,-19.66 408.283,-91.13 453.453,-184.44 l 40.43,-83.51 v 92.79 629.38 4.87 l -2.13,4.4 c -61.28,126.59 -544.847,363.05 -599.785,389.6 l -36.242,17.51 z m 26.985,-36.67 c 0,0 530.072,-256.13 589.892,-379.71 v -629.38 c -59.82,123.58 -468.885,196.11 -468.885,196.11 0,1.77 -121.007,812.98 -121.007,812.98" /><path
         id="path48"
         style="fill:#17b1aa;fill-opacity:1;fill-rule:nonzero;stroke:none"
         d="m 1400.67,3135.2 c -20.3,41.93 -323.47,145.53 -509.803,200.99 l -7.605,2.26 v 6.68 c -7.778,31.57 -179.422,710.42 -181.184,717.39 l -4.808,19.02 18.558,-6.34 c 68.801,-23.51 673.042,-231.49 703.992,-295.44 l 1.06,-2.19 v -684.13 l -20.21,41.76" /><path
         id="path50"
         style="fill:#ffffff;fill-opacity:1;fill-rule:nonzero;stroke:none"
         d="m 682.145,4097.95 9.617,-38.04 c 59.84,-236.66 171.961,-680.25 180.859,-716.08 v -13.32 l 15.211,-4.52 c 1.199,-0.36 121.558,-36.25 244.398,-79.24 229.95,-80.46 256,-110.95 258.89,-116.24 l 40.43,-83.52 -0.03,92.84 v 635.3 4.87 l -2.13,4.4 c -7.26,15 -22.38,46.23 -371.74,178.79 -169.099,64.17 -336.709,121.5 -338.377,122.08 l -37.128,12.68 z m 30.25,-32.82 c 0,0 667.935,-228.21 697.845,-290 v -635.3 c -29.91,61.8 -516.338,206.55 -516.338,206.55 0,0.89 -181.507,718.75 -181.507,718.75" /><path
         id="path52"
         style="fill:#3e4141;fill-opacity:1;fill-rule:nonzero;stroke:none"
         d="M 838.23,3342.66 587.105,3990.68 1420.88,3783.45 V 3118.43 L 838.23,3342.66" /><path
         id="path54"
         style="fill:#ffffff;fill-opacity:1;fill-rule:nonzero;stroke:none"
         d="m 569.781,4005.96 14.813,-38.24 242.011,-624.51 3.411,-8.79 8.793,-3.38 563.791,-216.98 28.92,-11.13 v 30.99 641.21 16.63 l -16.14,4.02 -805.814,200.28 -39.785,9.9 z m 34.653,-30.54 805.806,-200.29 V 3133.92 L 846.449,3350.9 604.434,3975.42" /><g
         transform="scale(10)"
         id="g56"><text
           id="text60"
           style="font-variant:normal;font-weight:bold;font-size:21.02840042px;font-family:LeagueSpartan;-inkscape-font-specification:LeagueSpartan-Bold;writing-mode:lr-tb;fill:#3e4141;fill-opacity:1;fill-rule:nonzero;stroke:none"
           transform="matrix(1,0,0,-1,49.5043,278.935)"><tspan
             id="tspan58"
             y="0"
             x="0 16.486265 36.379131 52.865398 69.03624 75.512985 92.882446 110.31499 116.05574 130.06013 148.50204 166.94395">AMAZING BOOK</tspan></text>
</g><g
         transform="scale(10)"
         id="g62"><text
           id="text66"
           style="font-variant:normal;font-weight:normal;font-size:8.51504993px;font-family:Montserrat;-inkscape-font-specification:Montserrat-Regular;writing-mode:lr-tb;fill:#515355;fill-opacity:1;fill-rule:nonzero;stroke:none"
           transform="matrix(1,0,0,-1,59.2563,263.627)"><tspan
             id="tspan64"
             y="0"
             x="0 9.4091816 20.810577 31.812082 42.225681 48.714466 57.561634 67.838936 78.678749 87.951698 94.780296 105.96049 115.91458 122.40286 133.58305 143.53716 153.95076">YOUR COLLECTION HERE</tspan></text>
</g><g
         transform="scale(10)"
         id="g68"><text
           id="text72"
           style="font-variant:normal;font-weight:bold;font-size:25px;font-family:LeagueSpartan;-inkscape-font-specification:LeagueSpartan-Bold;writing-mode:lr-tb;fill:#3e4141;fill-opacity:1;fill-rule:nonzero;stroke:none"
           transform="matrix(1,0,0,-1,273.786,86.7961)"><tspan
             id="tspan70"
             y="0"
             x="0 23.65 43.25 63.974998 70.875389 89.699585 96.524582 113.17397 135.09897 157.02481">MAGIC BOOK</tspan></text>
</g><g
         transform="scale(10)"
         id="g74"><text
           id="text78"
           style="font-variant:normal;font-weight:normal;font-size:9.18540001px;font-family:Montserrat;-inkscape-font-specification:Montserrat-Regular;writing-mode:lr-tb;fill:#515355;fill-opacity:1;fill-rule:nonzero;stroke:none"
           transform="matrix(1,0,0,-1,274.03,68.9801)"><tspan
             id="tspan76"
             y="0"
             x="0 10.14938 22.44919 34.316406 45.549812 52.548836 62.092789 73.17968 84.873085 94.875084 102.24226 114.30276 125.04006 132.03909 144.09955 154.83687 166.07024">YOUR COLLECTION HERE</tspan></text>
</g><path
         id="path80"
         style="fill:#17b1aa;fill-opacity:1;fill-rule:nonzero;stroke:none"
         d="m 3658.07,1225.41 c -0.49,-1.06 -0.99,-2.09 -1.48,-3.16 318.68,78.38 675.8,32.52 825.17,6.77 l -258.79,165.52 c -150.33,-15.48 -368.08,-41.09 -564.9,-169.13" /><path
         id="path82"
         style="fill:#78ce7a;fill-opacity:1;fill-rule:nonzero;stroke:none"
         d="m 4101.73,1559.38 c -1.9,-0.76 -3.74,-1.49 -5.65,-2.24 -112.07,-44.34 -260.84,-103.25 -399.8,-254.71 -5.33,-9.94 -10.64,-20.16 -15.94,-30.69 198.23,115.47 409.72,137.16 553.9,151.9 81.9,8.38 148.9,15.24 168.48,35.46 l -300.99,100.28" /><path
         id="path84"
         style="fill:#fdde38;fill-opacity:1;fill-rule:nonzero;stroke:none"
         d="m 4276.36,1718.78 -206.14,-0.28 c -24.31,-23.78 -51.49,-46.18 -80.58,-70.13 -71.72,-59.07 -155.68,-128.3 -238.68,-253.98 119.65,103.41 240.09,151.1 334.9,188.6 101.36,40.09 170.73,67.54 190.5,135.79" /><path
         id="path86"
         style="fill:#f68a4f;fill-opacity:1;fill-rule:nonzero;stroke:none"
         d="m 3646.08,1327.16 v -61.89 c 109.76,226.56 228.79,324.59 325.88,404.55 86.17,70.98 149.92,123.49 175.18,237.75 L 3799.93,1779.8 c -18.58,-109.28 -53.61,-164.05 -84.61,-212.5 -37.15,-58.1 -69.24,-108.28 -69.24,-240.14" /><path
         id="path88"
         style="fill:#17b1aa;fill-opacity:1;fill-rule:nonzero;stroke:none"
         d="m 3590.63,1229.93 c 0.49,-1.06 0.99,-2.09 1.48,-3.16 -318.68,78.38 -675.8,32.52 -825.17,6.78 l 258.79,165.51 c 150.33,-15.48 368.08,-41.09 564.9,-169.13" /><path
         id="path90"
         style="fill:#78ce7a;fill-opacity:1;fill-rule:nonzero;stroke:none"
         d="m 3146.97,1563.9 c 1.9,-0.76 3.74,-1.49 5.65,-2.24 112.07,-44.34 260.84,-103.25 399.8,-254.71 5.32,-9.94 10.64,-20.16 15.94,-30.69 -198.23,115.47 -409.72,137.16 -553.9,151.9 -81.9,8.38 -148.9,15.24 -168.48,35.46 l 300.99,100.28" /><path
         id="path92"
         style="fill:#fdde38;fill-opacity:1;fill-rule:nonzero;stroke:none"
         d="m 2972.34,1723.3 206.14,-0.28 c 24.31,-23.78 51.49,-46.17 80.58,-70.13 71.72,-59.07 155.68,-128.3 238.68,-253.97 -119.64,103.4 -240.09,151.09 -334.9,188.59 -101.36,40.09 -170.73,67.54 -190.5,135.79" /><path
         id="path94"
         style="fill:#f68a4f;fill-opacity:1;fill-rule:nonzero;stroke:none"
         d="m 3602.62,1331.68 v -61.88 c -109.76,226.55 -228.79,324.59 -325.88,404.55 -86.16,70.96 -149.91,123.48 -175.18,237.74 l 347.21,-127.76 c 18.58,-109.29 53.61,-164.06 84.6,-212.51 37.16,-58.1 69.25,-108.27 69.25,-240.14" /><g
         transform="scale(10)"
         id="g96"><text
           id="text100"
           style="font-variant:normal;font-weight:bold;font-size:21.76880074px;font-family:LeagueSpartan;-inkscape-font-specification:LeagueSpartan-Bold;writing-mode:lr-tb;fill:#3e4141;fill-opacity:1;fill-rule:nonzero;stroke:none"
           transform="matrix(1,0,0,-1,287.911,278.649)"><tspan
             id="tspan98"
             y="0"
             x="0 14.498021 33.58926 52.680496 69.812538 75.755424 88.054237 107.14547 125.19239">BOOK LOGO</tspan></text>
</g><g
         transform="scale(10)"
         id="g102"><text
           id="text106"
           style="font-variant:normal;font-weight:normal;font-size:7.42439985px;font-family:Montserrat;-inkscape-font-specification:Montserrat-Regular;writing-mode:lr-tb;fill:#515355;fill-opacity:1;fill-rule:nonzero;stroke:none"
           transform="matrix(1,0,0,-1,288.596,263.342)"><tspan
             id="tspan104"
             y="0"
             x="0 8.2040958 18.145493 27.737291 36.817364 42.47459 50.188492 59.149429 68.601578 76.686531 82.64064 92.388695 101.06741 106.72464 116.47269 125.1524 134.23251">YOUR COLLECTION HERE</tspan></text>
</g><path
         id="path108"
         style="fill:none;stroke:#3e4141;stroke-width:58.04710007;stroke-linecap:round;stroke-linejoin:miter;stroke-miterlimit:10;stroke-dasharray:none;stroke-opacity:1"
         d="m 2927.56,4278.66 h 851.3 c 90.73,0 164.96,-74.23 164.96,-164.96 v 0 c 0,-90.74 -74.23,-164.97 -164.96,-164.97 h -850.69" /><path
         id="path110"
         style="fill:#f68a4f;fill-opacity:1;fill-rule:nonzero;stroke:none"
         d="m 3786.76,4001.75 h -822.94 v 223.89 h 822.94 c 54.72,0 99.5,-44.78 99.5,-99.5 v -24.88 c 0,-54.73 -44.78,-99.51 -99.5,-99.51" /><path
         id="path112"
         style="fill:none;stroke:#ffffff;stroke-width:16.5848999;stroke-linecap:round;stroke-linejoin:miter;stroke-miterlimit:10;stroke-dasharray:none;stroke-opacity:1"
         d="m 2963.82,4189.92 h 865.67" /><path
         id="path114"
         style="fill:none;stroke:#ffffff;stroke-width:16.5848999;stroke-linecap:round;stroke-linejoin:miter;stroke-miterlimit:10;stroke-dasharray:none;stroke-opacity:1"
         d="m 2963.82,4113.7 h 865.67" /><path
         id="path116"
         style="fill:none;stroke:#ffffff;stroke-width:16.5848999;stroke-linecap:round;stroke-linejoin:miter;stroke-miterlimit:10;stroke-dasharray:none;stroke-opacity:1"
         d="m 2963.82,4037.48 h 865.67" /><path
         id="path118"
         style="fill:none;stroke:#3e4141;stroke-width:58.04710007;stroke-linecap:round;stroke-linejoin:miter;stroke-miterlimit:10;stroke-dasharray:none;stroke-opacity:1"
         d="m 3879.99,3862.47 h -851.3 c -90.73,0 -164.97,-74.23 -164.97,-164.97 v 0 c 0,-90.73 74.24,-164.96 164.97,-164.96 h 850.68" /><path
         id="path120"
         style="fill:#fdde38;fill-opacity:1;fill-rule:nonzero;stroke:none"
         d="m 3020.79,3585.56 h 822.93 v 223.89 h -822.93 c -54.74,0 -99.51,-44.78 -99.51,-99.51 v -24.87 c 0,-54.73 44.77,-99.51 99.51,-99.51" /><path
         id="path122"
         style="fill:none;stroke:#ffffff;stroke-width:16.5848999;stroke-linecap:round;stroke-linejoin:miter;stroke-miterlimit:10;stroke-dasharray:none;stroke-opacity:1"
         d="M 3843.72,3773.73 H 2978.05" /><path
         id="path124"
         style="fill:none;stroke:#ffffff;stroke-width:16.5848999;stroke-linecap:round;stroke-linejoin:miter;stroke-miterlimit:10;stroke-dasharray:none;stroke-opacity:1"
         d="M 3843.72,3697.5 H 2978.05" /><path
         id="path126"
         style="fill:none;stroke:#ffffff;stroke-width:16.5848999;stroke-linecap:round;stroke-linejoin:miter;stroke-miterlimit:10;stroke-dasharray:none;stroke-opacity:1"
         d="M 3843.72,3621.28 H 2978.05" /><path
         id="path128"
         style="fill:none;stroke:#3e4141;stroke-width:58.04710007;stroke-linecap:round;stroke-linejoin:miter;stroke-miterlimit:10;stroke-dasharray:none;stroke-opacity:1"
         d="m 2927.56,3446.28 h 851.3 c 90.73,0 164.96,-74.23 164.96,-164.97 v 0 c 0,-90.73 -74.23,-164.96 -164.96,-164.96 h -850.69" /><path
         id="path130"
         style="fill:#17b1aa;fill-opacity:1;fill-rule:nonzero;stroke:none"
         d="m 3786.76,3169.37 h -822.94 v 223.89 h 822.94 c 54.72,0 99.5,-44.78 99.5,-99.51 v -24.88 c 0,-54.72 -44.78,-99.5 -99.5,-99.5" /><path
         id="path132"
         style="fill:none;stroke:#ffffff;stroke-width:16.5848999;stroke-linecap:round;stroke-linejoin:miter;stroke-miterlimit:10;stroke-dasharray:none;stroke-opacity:1"
         d="m 2963.82,3357.53 h 865.67" /><path
         id="path134"
         style="fill:none;stroke:#ffffff;stroke-width:16.5848999;stroke-linecap:round;stroke-linejoin:miter;stroke-miterlimit:10;stroke-dasharray:none;stroke-opacity:1"
         d="m 2963.82,3281.31 h 865.67" /><path
         id="path136"
         style="fill:none;stroke:#ffffff;stroke-width:16.5848999;stroke-linecap:round;stroke-linejoin:miter;stroke-miterlimit:10;stroke-dasharray:none;stroke-opacity:1"
         d="m 2963.82,3205.09 h 865.67" /><path
         id="path138"
         style="fill:#3e4141;fill-opacity:1;fill-rule:nonzero;stroke:none"
         d="m 4269.48,3064.1 h -182.39 c -37.31,0 -67.84,30.52 -67.84,67.84 v 1131.62 c 0,37.32 30.53,67.85 67.84,67.85 h 182.39 c 37.32,0 67.84,-30.53 67.84,-67.85 V 3131.94 c 0,-37.32 -30.52,-67.84 -67.84,-67.84" /><path
         id="path140"
         style="fill:#78ce7a;fill-opacity:1;fill-rule:nonzero;stroke:none"
         d="m 4263.34,4151.81 h -170.11 c -14.25,0 -25.91,11.66 -25.91,25.91 v 10.22 c 0,14.25 11.66,25.91 25.91,25.91 h 170.11 c 14.25,0 25.91,-11.66 25.91,-25.91 v -10.22 c 0,-14.25 -11.66,-25.91 -25.91,-25.91" /><path
         id="path142"
         style="fill:#78ce7a;fill-opacity:1;fill-rule:nonzero;stroke:none"
         d="m 4263.34,4044.57 h -170.11 c -14.25,0 -25.91,11.66 -25.91,25.91 v 10.22 c 0,14.25 11.66,25.91 25.91,25.91 h 170.11 c 14.25,0 25.91,-11.66 25.91,-25.91 v -10.22 c 0,-14.25 -11.66,-25.91 -25.91,-25.91" /><path
         id="path144"
         style="fill:#3e4141;fill-opacity:1;fill-rule:nonzero;stroke:none"
         d="M 705.289,1905.38 H 2118.9 c 28.98,0 52.69,-17.37 52.69,-38.6 v -631.72 c 0,-21.23 -23.71,-38.6 -52.69,-38.6 L 1428.65,1153 c -18.11,-1.88 -36.48,-1.85 -54.57,0.08 l -668.791,43.38 c -28.984,0 -52.695,17.37 -52.695,38.6 v 631.72 c 0,21.23 23.711,38.6 52.695,38.6" /><path
         id="path146"
         style="fill:#17b1aa;fill-opacity:1;fill-rule:nonzero;stroke:none"
         d="m 1412.09,1235.9 c 0,0 314.8,115.34 684.11,22.99 v 695.38 c 0,0 -368.49,239.04 -684.11,0 V 1235.9" /><path
         id="path148"
         style="fill:none;stroke:#ffffff;stroke-width:21.27809906;stroke-linecap:butt;stroke-linejoin:round;stroke-miterlimit:10;stroke-dasharray:none;stroke-opacity:1"
         d="m 1412.09,1235.9 c 0,0 314.8,115.34 684.11,22.99 v 695.38 c 0,0 -368.49,239.04 -684.11,0 z" /><path
         id="path150"
         style="fill:#78ce7a;fill-opacity:1;fill-rule:nonzero;stroke:none"
         d="m 1412.09,1258.64 c 0,0 218.81,178.72 518.41,144.32 v 709.87 c 0,0 -300.58,112.28 -518.41,-135.82 v -718.37" /><path
         id="path152"
         style="fill:none;stroke:#ffffff;stroke-width:21.27809906;stroke-linecap:butt;stroke-linejoin:round;stroke-miterlimit:10;stroke-dasharray:none;stroke-opacity:1"
         d="m 1412.09,1258.64 c 0,0 218.81,178.72 518.41,144.32 v 709.87 c 0,0 -300.58,112.28 -518.41,-135.82 z" /><path
         id="path154"
         style="fill:#fdde38;fill-opacity:1;fill-rule:nonzero;stroke:none"
         d="m 1412.09,1253.61 c 0,0 122.81,242.1 352.7,265.65 v 724.35 c 0,0 -232.66,-14.48 -352.7,-271.63 v -718.37" /><path
         id="path156"
         style="fill:none;stroke:#ffffff;stroke-width:21.27809906;stroke-linecap:butt;stroke-linejoin:round;stroke-miterlimit:10;stroke-dasharray:none;stroke-opacity:1"
         d="m 1412.09,1253.61 c 0,0 122.81,242.1 352.7,265.65 v 724.35 c 0,0 -232.66,-14.48 -352.7,-271.63 z" /><path
         id="path158"
         style="fill:#f68a4f;fill-opacity:1;fill-rule:nonzero;stroke:none"
         d="m 1412.09,1235.9 c 0,0 26.82,305.49 186.99,386.98 v 738.85 c 0,0 -164.73,-141.25 -186.99,-407.46 V 1235.9" /><path
         id="path160"
         style="fill:none;stroke:#ffffff;stroke-width:21.27809906;stroke-linecap:butt;stroke-linejoin:round;stroke-miterlimit:10;stroke-dasharray:none;stroke-opacity:1"
         d="m 1412.09,1235.9 c 0,0 26.82,305.49 186.99,386.98 v 738.85 c 0,0 -164.73,-141.25 -186.99,-407.46 z" /><path
         id="path162"
         style="fill:#17b1aa;fill-opacity:1;fill-rule:nonzero;stroke:none"
         d="m 1412.09,1235.9 c 0,0 -314.8,115.34 -684.106,22.99 v 695.38 c 0,0 368.486,239.04 684.106,0 V 1235.9" /><path
         id="path164"
         style="fill:none;stroke:#ffffff;stroke-width:21.27809906;stroke-linecap:butt;stroke-linejoin:round;stroke-miterlimit:10;stroke-dasharray:none;stroke-opacity:1"
         d="m 1412.09,1235.9 c 0,0 -314.8,115.34 -684.106,22.99 v 695.38 c 0,0 368.486,239.04 684.106,0 z" /><path
         id="path166"
         style="fill:#78ce7a;fill-opacity:1;fill-rule:nonzero;stroke:none"
         d="m 1412.09,1258.64 c 0,0 -218.8,178.72 -518.399,144.32 v 709.87 c 0,0 300.569,112.28 518.399,-135.82 v -718.37" /><path
         id="path168"
         style="fill:none;stroke:#ffffff;stroke-width:21.27809906;stroke-linecap:butt;stroke-linejoin:round;stroke-miterlimit:10;stroke-dasharray:none;stroke-opacity:1"
         d="m 1412.09,1258.64 c 0,0 -218.8,178.72 -518.399,144.32 v 709.87 c 0,0 300.569,112.28 518.399,-135.82 z" /><path
         id="path170"
         style="fill:#fdde38;fill-opacity:1;fill-rule:nonzero;stroke:none"
         d="m 1412.09,1253.61 c 0,0 -122.8,242.1 -352.7,265.65 v 724.35 c 0,0 232.66,-14.48 352.7,-271.63 v -718.37" /><path
         id="path172"
         style="fill:none;stroke:#ffffff;stroke-width:21.27809906;stroke-linecap:butt;stroke-linejoin:round;stroke-miterlimit:10;stroke-dasharray:none;stroke-opacity:1"
         d="m 1412.09,1253.61 c 0,0 -122.8,242.1 -352.7,265.65 v 724.35 c 0,0 232.66,-14.48 352.7,-271.63 z" /><path
         id="path174"
         style="fill:#f89d6a;fill-opacity:1;fill-rule:nonzero;stroke:none"
         d="m 1412.09,1235.9 c 0,0 -26.81,305.49 -186.99,386.98 v 738.85 c 0,0 164.74,-141.25 186.99,-407.46 V 1235.9" /><path
         id="path176"
         style="fill:none;stroke:#ffffff;stroke-width:21.27809906;stroke-linecap:butt;stroke-linejoin:round;stroke-miterlimit:10;stroke-dasharray:none;stroke-opacity:1"
         d="m 1412.09,1235.9 c 0,0 -26.81,305.49 -186.99,386.98 v 738.85 c 0,0 164.74,-141.25 186.99,-407.46 z" /><g
         transform="scale(10)"
         id="g178"><text
           id="text182"
           style="font-variant:normal;font-weight:bold;font-size:21.02840042px;font-family:LeagueSpartan;-inkscape-font-specification:LeagueSpartan-Bold;writing-mode:lr-tb;fill:#3e4141;fill-opacity:1;fill-rule:nonzero;stroke:none"
           transform="matrix(1,0,0,-1,52.0707,85.2262)"><tspan
             id="tspan180"
             y="0"
             x="0 15.834385 30.89072 43.212498 58.689594 71.222519 75.91246 92.398727 104.5952 110.33595 124.34035 142.78226 161.22417">CREATIVE BOOK</tspan></text>
</g><g
         transform="scale(10)"
         id="g184"><text
           id="text188"
           style="font-variant:normal;font-weight:normal;font-size:8.51504993px;font-family:Montserrat;-inkscape-font-specification:Montserrat-Regular;writing-mode:lr-tb;fill:#515355;fill-opacity:1;fill-rule:nonzero;stroke:none"
           transform="matrix(1,0,0,-1,59.2566,68.8039)"><tspan
             id="tspan186"
             y="0"
             x="0 9.4091816 20.810577 31.812082 42.225681 48.714466 57.561634 67.838936 78.678749 87.951698 94.780296 105.96049 115.91458 122.40286 133.58305 143.53716 153.95125">YOUR COLLECTION HERE</tspan></text>
</g></g></g></svg>